<svg width="20" height="20" viewBox="0 0 20 20" fill="none" xmlns="http://www.w3.org/2000/svg">
<g id="Facebook Logo" clip-path="url(#clip0_40001821_11140)">
<path id="path14" d="M19.5837 10.0585C19.5837 4.76574 15.2931 0.475143 10.0003 0.475143C4.70759 0.475143 0.416992 4.76574 0.416992 10.0585C0.416992 14.8418 3.92148 18.8065 8.50293 19.5254V12.8287H6.06966V10.0585H8.50293V7.94715C8.50293 5.54533 9.93365 4.21863 12.1227 4.21863C13.1712 4.21863 14.2679 4.40581 14.2679 4.40581V6.76421H13.0595C11.869 6.76421 11.4977 7.50293 11.4977 8.2608V10.0585H14.1556L13.7307 12.8287H11.4977V19.5254C16.0792 18.8065 19.5837 14.8418 19.5837 10.0585Z" fill="white"/>
</g>
<defs>
<clipPath id="clip0_40001821_11140">
<rect width="20" height="20" fill="white"/>
</clipPath>
</defs>
</svg>
