<svg width="100" height="24" viewBox="0 0 100 24" fill="none" xmlns="http://www.w3.org/2000/svg">
<path d="M100 8.80863C100 11.7557 99.0017 13.9864 97.0202 15.4681C95.7606 16.3961 94.2398 16.9823 92.4733 17.194L98.802 23.7231H96.4211L90.1538 17.2591L88.5409 15.5658H89.8159C92.2429 15.5658 94.0094 15.2727 95.1308 14.6865C97.266 13.563 98.3412 11.5929 98.3412 8.80863C98.3412 6.02437 97.266 4.0705 95.1308 2.93075C94.0248 2.34459 92.504 2.05151 90.5839 2.05151H85.5455V23.7231H83.9326V0.358154H90.5839C92.7191 0.358154 94.4856 0.716363 95.8835 1.44906C98.6331 2.86562 100 5.32423 100 8.80863Z" fill="#FF3365"/>
<path d="M70.0457 22.3066C72.7338 22.3066 75.0226 21.2971 76.9274 19.2944C78.8168 17.2754 79.7692 14.8494 79.7692 12C79.7692 9.15061 78.8168 6.72456 76.9274 4.70556C75.0226 2.70285 72.7338 1.69335 70.0457 1.69335C67.3575 1.69335 65.0687 2.70285 63.1639 4.70556C61.2745 6.72456 60.3222 9.15061 60.3222 12C60.3222 14.8494 61.2745 17.2754 63.1639 19.2944C65.0687 21.2971 67.3575 22.3066 70.0457 22.3066ZM70.061 0C73.1793 0 75.8521 1.17232 78.0641 3.51696C80.2761 5.8616 81.3821 8.69471 81.3667 12C81.3667 15.3053 80.2607 18.1384 78.0487 20.483C75.8367 22.8277 73.1639 24 70.0457 24C66.9274 24 64.2546 22.8277 62.0426 20.483C59.8306 18.1384 58.7246 15.3053 58.7246 12C58.74 8.69471 59.846 5.8616 62.0579 3.51696C64.2699 1.17232 66.9427 0 70.061 0Z" fill="#FF3365"/>
<path d="M42.8111 2.10035V12.0325H56.4363V13.7421H42.8111V23.7231H41.1982V0.358154H56.4978V2.10035H42.8111Z" fill="#FF3365"/>
<path d="M38.8792 0.374512V2.08415H31.383V23.7232H29.7701V2.08415H22.3047V0.374512H38.8792Z" fill="#FF3365"/>
<path d="M19.985 0.358154V23.7231H18.3721V0.358154H19.985Z" fill="#FF3365"/>
<path d="M1.6129 2.10035V12.0325H15.2381V13.7421H1.6129V23.7231H0V0.358154H15.2995V2.10035H1.6129Z" fill="#FF3365"/>
</svg>
