<svg width="100" height="20" viewBox="0 0 100 20" fill="none" xmlns="http://www.w3.org/2000/svg">
<path d="M87.2165 10.5698H88.8767C91.9205 10.5698 93.9127 8.636 93.9127 5.74858C93.9127 2.78169 91.9205 0.821428 88.8767 0.821428H87.2165V10.5698ZM88.2403 19.232L88.683 19.7353H81.1289L81.5716 19.232C82.1804 18.5433 82.5678 17.4572 82.5678 16.53V3.47043C82.5678 2.54328 82.1804 1.45719 81.5716 0.768448L81.1289 0.265137H92.9443C96.3201 0.265137 98.5614 2.41083 98.5614 5.64262C98.5614 8.98037 96.3201 11.1261 92.9443 11.1261H92.9166C94.0234 11.4175 94.9919 12.1857 95.4346 13.2718L96.3201 15.5234C96.6798 16.3976 97.3716 17.3777 98.0633 18.0135L100 19.7353H94.6599C93.7191 19.7353 92.8336 19.1526 92.4462 18.3049L89.3194 11.1261H87.2165V16.53C87.2165 17.4572 87.6315 18.5433 88.2403 19.232Z" fill="#FF3365"/>
<path d="M64.0686 10.0132C64.0686 15.7086 66.3929 19.4702 69.9071 19.4702C73.3936 19.4702 75.7179 15.7086 75.7179 10.0132C75.7179 4.31788 73.3936 0.556292 69.9071 0.556292C66.3929 0.556292 64.0686 4.31788 64.0686 10.0132ZM59.4199 10.0132C59.4199 4 63.5982 0 69.9071 0C76.1883 0 80.3666 4 80.3666 10.0132C80.3666 16.0265 76.1883 20 69.9071 20C63.5982 20 59.4199 16.0265 59.4199 10.0132Z" fill="#FF3365"/>
<path d="M50.6143 10.2784H49.0094V16.53C49.0094 17.4572 49.4245 18.5433 50.0332 19.232L50.476 19.7353H42.9219L43.3646 19.232C43.9734 18.5433 44.3607 17.4572 44.3607 16.53V3.47043C44.3607 2.54328 43.9734 1.45719 43.3646 0.768448L42.9219 0.265137H58.3067L59.1922 4.45057H58.6111L57.3659 3.23202C55.8441 1.80156 53.409 0.821428 51.2507 0.821428H49.0094V9.72209H50.6143C51.7488 9.72209 52.911 9.11282 53.4921 8.18567L53.9625 7.49693H54.5435V12.5035H53.9625L53.4921 11.8148C52.911 10.8877 51.7488 10.2784 50.6143 10.2784Z" fill="#FF3365"/>
<path d="M36.8105 19.232L37.2532 19.7353H29.6992L30.1419 19.232C30.7506 18.5433 31.1657 17.4572 31.1657 16.53V0.900899C29.3394 1.1658 27.4025 2.03997 26.1573 3.23202L24.9121 4.45057H24.3311L25.1888 0.265137H41.7636L42.6213 4.45057H42.0403L40.7951 3.23202C39.5499 2.03997 37.6406 1.1658 35.8144 0.900899V16.53C35.8144 17.4572 36.2018 18.5433 36.8105 19.232Z" fill="#FF3365"/>
<path d="M23.6348 19.232L24.0775 19.7353H16.5234L16.9662 19.232C17.5749 18.5433 17.9623 17.4572 17.9623 16.53V3.47043C17.9623 2.54328 17.5749 1.45719 16.9662 0.768448L16.5234 0.265137H24.0775L23.6348 0.768448C23.026 1.45719 22.611 2.54328 22.611 3.47043V16.53C22.611 17.4572 23.026 18.5433 23.6348 19.232Z" fill="#FF3365"/>
<path d="M7.69244 10.2784H6.08754V16.53C6.08754 17.4572 6.5026 18.5433 7.11135 19.232L7.55408 19.7353H0L0.44273 19.232C1.05148 18.5433 1.43887 17.4572 1.43887 16.53V3.47043C1.43887 2.54328 1.05148 1.45719 0.44273 0.768448L0 0.265137H15.3849L16.2703 4.45057H15.6893L14.4441 3.23202C12.9222 1.80156 10.4872 0.821428 8.32886 0.821428H6.08754V9.72209H7.69244C8.82693 9.72209 9.9891 9.11282 10.5702 8.18567L11.0406 7.49693H11.6217V12.5035H11.0406L10.5702 11.8148C9.9891 10.8877 8.82693 10.2784 7.69244 10.2784Z" fill="#FF3365"/>
</svg>
